# xmcd
# 
# Track frame offsets:
#     150
#     16998
#     32349
# 
# Disc length: 670
# 
# Revision: 5
# Processed by: cddbd v1.5.2PL0 Copyright (c) Steve Scherf et al.
# Submitted via: fre:ac v1.0.17
# 
DISCID=14029c03
DTITLE=ゲスの極み乙女。 - ロマンスがありあまる
DYEAR=2015
DGENRE=JPop
TTITLE0=ロマンスがありあまる
TTITLE1=サイデンティティ
TTITLE2=Ink
EXTD=YEAR: 2015
EXTT0=
EXTT1=
EXTT2=
PLAYORDER=
